<svg xmlns="http://www.w3.org/2000/svg" xmlns:xlink="http://www.w3.org/1999/xlink" width="500" zoomAndPan="magnify" viewBox="0 0 375 374.999991" height="500" preserveAspectRatio="xMidYMid meet" version="1.0"><defs><g/><clipPath id="03bdc0954b"><path d="M 270 65.023438 L 312 65.023438 L 312 230.023438 L 270 230.023438 Z M 270 65.023438 " clip-rule="nonzero"/></clipPath><clipPath id="b5beecc07f"><path d="M 68.09375 65.773438 L 100.34375 65.773438 L 100.34375 221 L 68.09375 221 Z M 68.09375 65.773438 " clip-rule="nonzero"/></clipPath></defs><g fill="#ff5349" fill-opacity="1"><g transform="translate(54.035576, 271.846825)"><g><path d="M 79.328125 -77.203125 L 141.609375 0 L 116.03125 0 L 67.25 -60.390625 L 20.125 3.78125 L 20.125 -154.171875 L 40.265625 -154.171875 L 40.265625 -56.828125 L 111.296875 -154.171875 L 135.6875 -154.171875 Z M 79.328125 -77.203125 "/></g></g></g><g fill="#ff5349" fill-opacity="1"><g transform="translate(160.59941, 271.846825)"><g><path d="M 40.265625 0 L 20.359375 0 L 20.359375 -156.53125 L 120.53125 -48.3125 L 120.53125 -154.171875 L 140.1875 -154.171875 L 140.1875 3.78125 L 40.265625 -104.90625 Z M 40.265625 0 "/></g></g></g><g clip-path="url(#03bdc0954b)"><path fill="#ff5349" d="M 296.617188 124.410156 C 301.863281 121.183594 312.640625 116.886719 310.925781 98.070312 C 309.265625 79.914062 301.09375 65.632812 291.953125 65.050781 C 292.070312 65.046875 292.183594 65.035156 292.300781 65.039062 C 292.203125 65.039062 292.113281 65.035156 292.015625 65.035156 C 291.84375 65.027344 291.671875 65.035156 291.503906 65.039062 C 291.320312 65.035156 291.136719 65.027344 290.957031 65.035156 C 290.796875 65.027344 290.640625 65.035156 290.484375 65.039062 C 290.316406 65.035156 290.152344 65.027344 289.984375 65.035156 C 289.839844 65.027344 289.695312 65.039062 289.550781 65.039062 C 289.675781 65.039062 289.800781 65.050781 289.929688 65.058594 C 281.292969 65.726562 272.527344 79.972656 270.976562 98.070312 C 269.363281 116.886719 279.722656 120.851562 284.414062 124.410156 C 287.878906 127.042969 287.550781 132.566406 287.550781 132.566406 C 287.550781 132.566406 287.3125 137.117188 286.566406 146.816406 C 285.851562 156.105469 281.753906 204.707031 281.753906 213.527344 C 281.753906 221.816406 280.808594 229.539062 288.578125 230.121094 C 288.488281 230.128906 288.402344 230.144531 288.3125 230.144531 L 288.15625 230.148438 C 288.457031 230.15625 288.765625 230.15625 289.089844 230.144531 C 289.4375 230.15625 289.796875 230.160156 290.175781 230.144531 L 290.214844 230.144531 C 290.410156 230.148438 290.605469 230.15625 290.8125 230.152344 C 290.664062 230.148438 290.523438 230.136719 290.378906 230.128906 C 299.640625 229.535156 297.792969 214.765625 297.792969 214.765625 C 297.792969 214.765625 294.800781 156.570312 294.089844 146.871094 C 293.320312 136.378906 293.226562 132.566406 293.226562 132.566406 C 293.226562 132.566406 292.835938 126.742188 296.617188 124.410156 " fill-opacity="1" fill-rule="nonzero"/></g><g clip-path="url(#b5beecc07f)"><path fill="#ff5349" d="M 89.792969 130.285156 C 89.792969 127.789062 90.402344 125.332031 91.546875 123.128906 L 96.933594 116.511719 C 99.277344 113.644531 100.484375 110.015625 100.355469 106.3125 L 96.910156 67.542969 C 96.875 66.558594 96.066406 65.773438 95.121094 65.773438 C 94.171875 65.773438 93.421875 66.558594 93.457031 67.542969 L 95.132812 101.992188 C 95.179688 103.351562 94.195312 104.464844 92.941406 104.464844 C 91.6875 104.464844 90.660156 103.351562 90.636719 101.992188 L 89.652344 67.542969 C 89.640625 66.558594 88.855469 65.773438 87.90625 65.773438 C 86.957031 65.773438 86.195312 66.558594 86.195312 67.542969 L 86.546875 101.992188 C 86.558594 103.351562 85.550781 104.464844 84.300781 104.464844 C 83.046875 104.464844 82.039062 103.351562 82.050781 101.992188 L 82.402344 67.542969 C 82.390625 66.558594 81.628906 65.773438 80.679688 65.773438 C 79.734375 65.773438 78.949219 66.558594 78.925781 67.542969 L 77.941406 101.992188 C 77.917969 103.351562 76.886719 104.464844 75.632812 104.464844 C 74.382812 104.464844 73.398438 103.351562 73.445312 101.992188 L 75.121094 67.542969 C 75.15625 66.558594 74.40625 65.773438 73.457031 65.773438 C 72.507812 65.773438 71.699219 66.558594 71.664062 67.542969 L 68.222656 106.3125 C 68.09375 110.015625 69.3125 113.632812 71.640625 116.511719 L 77.027344 123.128906 C 78.1875 125.34375 78.785156 127.789062 78.785156 130.285156 C 78.785156 130.285156 81.289062 167.300781 76.546875 203.027344 C 76.546875 203.027344 72.882812 220.964844 84.277344 220.964844 C 95.671875 220.964844 92.003906 203.027344 92.003906 203.027344 C 87.285156 167.300781 89.792969 130.285156 89.792969 130.285156 Z M 89.792969 130.285156 " fill-opacity="1" fill-rule="nonzero"/></g></svg>