<svg xmlns="http://www.w3.org/2000/svg" xmlns:xlink="http://www.w3.org/1999/xlink" width="500" zoomAndPan="magnify" viewBox="0 0 375 374.999991" height="500" preserveAspectRatio="xMidYMid meet" version="1.0"><defs><g/><clipPath id="9abcf0e4b8"><path d="M 270 65.023438 L 312 65.023438 L 312 230.023438 L 270 230.023438 Z M 270 65.023438 " clip-rule="nonzero"/></clipPath><clipPath id="e23be82ca7"><path d="M 68.09375 65.773438 L 100.34375 65.773438 L 100.34375 221 L 68.09375 221 Z M 68.09375 65.773438 " clip-rule="nonzero"/></clipPath><clipPath id="6318d53ea7"><path d="M 111 13 L 259.902344 13 L 259.902344 118.742188 L 111 118.742188 Z M 111 13 " clip-rule="nonzero"/></clipPath></defs><g fill="#ff5349" fill-opacity="1"><g transform="translate(54.035576, 271.846825)"><g><path d="M 79.328125 -77.203125 L 141.609375 0 L 116.03125 0 L 67.25 -60.390625 L 20.125 3.78125 L 20.125 -154.171875 L 40.265625 -154.171875 L 40.265625 -56.828125 L 111.296875 -154.171875 L 135.6875 -154.171875 Z M 79.328125 -77.203125 "/></g></g></g><g fill="#ff5349" fill-opacity="1"><g transform="translate(160.59941, 271.846825)"><g><path d="M 40.265625 0 L 20.359375 0 L 20.359375 -156.53125 L 120.53125 -48.3125 L 120.53125 -154.171875 L 140.1875 -154.171875 L 140.1875 3.78125 L 40.265625 -104.90625 Z M 40.265625 0 "/></g></g></g><g clip-path="url(#9abcf0e4b8)"><path fill="#ff5349" d="M 296.617188 124.410156 C 301.863281 121.183594 312.640625 116.886719 310.925781 98.070312 C 309.265625 79.914062 301.09375 65.632812 291.953125 65.050781 C 292.070312 65.046875 292.183594 65.035156 292.300781 65.039062 C 292.203125 65.039062 292.113281 65.035156 292.015625 65.035156 C 291.84375 65.027344 291.671875 65.035156 291.503906 65.039062 C 291.320312 65.035156 291.136719 65.027344 290.957031 65.035156 C 290.796875 65.027344 290.640625 65.035156 290.484375 65.039062 C 290.316406 65.035156 290.152344 65.027344 289.984375 65.035156 C 289.839844 65.027344 289.695312 65.039062 289.550781 65.039062 C 289.675781 65.039062 289.800781 65.050781 289.929688 65.058594 C 281.292969 65.726562 272.527344 79.972656 270.976562 98.070312 C 269.363281 116.886719 279.722656 120.851562 284.414062 124.410156 C 287.878906 127.042969 287.550781 132.566406 287.550781 132.566406 C 287.550781 132.566406 287.3125 137.117188 286.566406 146.816406 C 285.851562 156.105469 281.753906 204.707031 281.753906 213.527344 C 281.753906 221.816406 280.808594 229.539062 288.578125 230.121094 C 288.488281 230.128906 288.402344 230.144531 288.3125 230.144531 L 288.15625 230.148438 C 288.457031 230.15625 288.765625 230.15625 289.089844 230.144531 C 289.4375 230.15625 289.796875 230.160156 290.175781 230.144531 L 290.214844 230.144531 C 290.410156 230.148438 290.605469 230.15625 290.8125 230.152344 C 290.664062 230.148438 290.523438 230.136719 290.378906 230.128906 C 299.640625 229.535156 297.792969 214.765625 297.792969 214.765625 C 297.792969 214.765625 294.800781 156.570312 294.089844 146.871094 C 293.320312 136.378906 293.226562 132.566406 293.226562 132.566406 C 293.226562 132.566406 292.835938 126.742188 296.617188 124.410156 " fill-opacity="1" fill-rule="nonzero"/></g><g clip-path="url(#e23be82ca7)"><path fill="#ff5349" d="M 89.792969 130.285156 C 89.792969 127.789062 90.402344 125.332031 91.546875 123.128906 L 96.933594 116.511719 C 99.277344 113.644531 100.484375 110.015625 100.355469 106.3125 L 96.910156 67.542969 C 96.875 66.558594 96.066406 65.773438 95.121094 65.773438 C 94.171875 65.773438 93.421875 66.558594 93.457031 67.542969 L 95.132812 101.992188 C 95.179688 103.351562 94.195312 104.464844 92.941406 104.464844 C 91.6875 104.464844 90.660156 103.351562 90.636719 101.992188 L 89.652344 67.542969 C 89.640625 66.558594 88.855469 65.773438 87.90625 65.773438 C 86.957031 65.773438 86.195312 66.558594 86.195312 67.542969 L 86.546875 101.992188 C 86.558594 103.351562 85.550781 104.464844 84.300781 104.464844 C 83.046875 104.464844 82.039062 103.351562 82.050781 101.992188 L 82.402344 67.542969 C 82.390625 66.558594 81.628906 65.773438 80.679688 65.773438 C 79.734375 65.773438 78.949219 66.558594 78.925781 67.542969 L 77.941406 101.992188 C 77.917969 103.351562 76.886719 104.464844 75.632812 104.464844 C 74.382812 104.464844 73.398438 103.351562 73.445312 101.992188 L 75.121094 67.542969 C 75.15625 66.558594 74.40625 65.773438 73.457031 65.773438 C 72.507812 65.773438 71.699219 66.558594 71.664062 67.542969 L 68.222656 106.3125 C 68.09375 110.015625 69.3125 113.632812 71.640625 116.511719 L 77.027344 123.128906 C 78.1875 125.34375 78.785156 127.789062 78.785156 130.285156 C 78.785156 130.285156 81.289062 167.300781 76.546875 203.027344 C 76.546875 203.027344 72.882812 220.964844 84.277344 220.964844 C 95.671875 220.964844 92.003906 203.027344 92.003906 203.027344 C 87.285156 167.300781 89.792969 130.285156 89.792969 130.285156 Z M 89.792969 130.285156 " fill-opacity="1" fill-rule="nonzero"/></g><g clip-path="url(#6318d53ea7)"><path fill="#ff5349" d="M 259.308594 52.894531 C 258.726562 43.621094 251.664062 35.273438 242.746094 32.902344 C 237.019531 31.367188 230.488281 32.015625 225.261719 34.875 C 225.035156 34.054688 224.769531 33.242188 224.460938 32.449219 C 220.847656 22.867188 211.402344 16.410156 201.574219 14.445312 C 199.636719 14.046875 197.683594 13.792969 195.71875 13.664062 C 190.0625 13.003906 184.941406 15.078125 180.230469 17.824219 C 167.960938 24.953125 157.863281 37.101562 143.105469 38.621094 C 142.847656 38.636719 142.632812 38.832031 142.605469 39.097656 C 142.574219 39.386719 142.785156 39.648438 143.078125 39.675781 C 145.566406 39.992188 148.097656 39.902344 150.578125 39.488281 C 157.980469 38.222656 164.742188 34.273438 170.925781 30.375 C 178.132812 26.078125 186.683594 18.796875 195.023438 19.65625 C 205.355469 20.15625 215.9375 24.738281 221.308594 33.964844 C 221.808594 34.800781 222.261719 35.671875 222.664062 36.566406 C 221.296875 37.621094 220.066406 38.863281 219.03125 40.289062 C 217.785156 42.085938 216.992188 44.265625 217.039062 46.417969 C 217.046875 46.644531 217.203125 46.855469 217.4375 46.917969 C 217.722656 46.996094 218.019531 46.820312 218.09375 46.535156 C 218.589844 44.691406 219.621094 43.125 220.929688 41.855469 C 221.820312 41.035156 222.789062 40.316406 223.828125 39.691406 C 224.511719 39.28125 225.226562 38.914062 225.957031 38.589844 C 232.339844 35.757812 240.351562 36.199219 246.070312 39.96875 C 250.042969 42.617188 252.953125 46.898438 253.714844 51.617188 C 254.035156 53.851562 253.886719 56.117188 253.65625 58.339844 C 252.9375 65.003906 249.605469 71.347656 243.609375 74.453125 C 240.003906 76.367188 235.988281 77.527344 231.910156 77.855469 C 224.21875 78.648438 218.191406 75.730469 211.671875 73.113281 C 216.566406 71.222656 221.316406 67.378906 221.441406 61.859375 C 221.449219 61.277344 220.617188 61.117188 220.402344 61.65625 C 218.996094 64.9375 216.363281 67.042969 213.269531 68.597656 C 211.160156 69.675781 208.898438 70.363281 206.714844 71.292969 C 206.714844 71.289062 206.714844 71.289062 206.710938 71.289062 C 205.863281 71.015625 205 70.761719 204.117188 70.535156 C 201.992188 70 199.859375 69.628906 197.71875 69.402344 C 197.714844 69.402344 197.714844 69.402344 197.714844 69.402344 C 202.214844 66.148438 205.671875 61.046875 206.730469 55.972656 C 207.328125 53.335938 207.46875 50.414062 206.332031 47.898438 C 206.082031 47.332031 205.210938 47.613281 205.324219 48.210938 C 205.6875 50.609375 205.125 53.019531 204.253906 55.25 C 201.996094 61.355469 197.035156 66.117188 191.210938 68.828125 C 191.035156 68.921875 190.855469 69.003906 190.679688 69.09375 C 188.257812 69.132812 185.832031 69.308594 183.410156 69.578125 C 183.566406 69.40625 183.71875 69.238281 183.867188 69.058594 C 186.539062 65.949219 188.292969 61.789062 188.085938 57.695312 C 188.078125 57.464844 187.914062 57.257812 187.679688 57.203125 C 187.386719 57.132812 187.09375 57.320312 187.035156 57.613281 C 186.757812 58.785156 186.367188 59.902344 185.886719 60.964844 C 184.421875 64.074219 182.015625 66.695312 179.140625 68.535156 C 171.8125 73.28125 160.796875 72.347656 153.40625 68.25 C 149.414062 65.871094 146.355469 62.011719 143.011719 58.632812 C 142.597656 58.222656 141.925781 58.675781 142.125 59.210938 C 143.039062 61.5625 144.148438 63.832031 145.546875 66.011719 C 148.417969 70.609375 152.324219 73.449219 157.082031 75.003906 C 155.390625 75.554688 153.730469 76.199219 152.125 76.96875 C 147.867188 78.945312 143.691406 81.828125 139.027344 81.960938 C 128.773438 83.402344 118.863281 68.699219 116.730469 59.878906 C 114.820312 52.371094 118.164062 43.882812 124.847656 39.839844 C 133.304688 34.640625 143.921875 34.824219 153.164062 31.027344 C 157.441406 29.402344 161.097656 26.480469 164.875 24.03125 C 165.417969 23.679688 164.972656 22.84375 164.367188 23.109375 C 160.335938 25.011719 156.609375 27.460938 152.328125 28.671875 C 146.003906 30.566406 139.140625 30.914062 132.585938 32.367188 C 127.96875 33.355469 123.230469 35.070312 119.488281 38.117188 C 113.050781 43.210938 109.90625 51.949219 111.441406 60.035156 C 112.921875 68.199219 118.859375 77.578125 125.261719 82.832031 C 129.152344 86.054688 134.355469 88.328125 139.601562 87.65625 C 141 87.617188 142.355469 87.394531 143.644531 87.0625 C 144.535156 93.4375 145.285156 99.839844 145.769531 106.246094 C 146.082031 110.078125 146.183594 114.675781 146.117188 118.53125 C 146.117188 118.53125 150.832031 116.328125 150.832031 116.328125 C 155.402344 114.230469 160.597656 112.917969 165.597656 111.878906 C 179.339844 109.207031 199.703125 107.296875 212.882812 112.3125 C 213.132812 112.417969 213.429688 112.316406 213.554688 112.070312 C 213.691406 111.808594 213.589844 111.492188 213.328125 111.355469 C 200.210938 104.96875 179.1875 105.066406 164.765625 106.550781 C 160.617188 107.039062 156.558594 107.644531 152.527344 108.699219 C 151.660156 100.792969 150.238281 93 148.699219 85.207031 C 151.585938 83.886719 154.199219 82.367188 157.1875 81.253906 C 160.765625 79.917969 164.554688 79.128906 168.355469 78.320312 C 174.097656 77.113281 179.957031 75.964844 185.746094 75.472656 C 192.382812 74.910156 198.988281 75.195312 205.292969 77.257812 C 208.976562 78.476562 212.464844 80.144531 216.140625 81.488281 C 215.519531 87.722656 215.535156 94.125 215.363281 100.386719 C 209.382812 98.382812 203.144531 97.292969 196.875 96.769531 C 189.179688 96.214844 181.21875 96.667969 173.972656 99.445312 C 173.726562 99.539062 173.585938 99.808594 173.652344 100.070312 C 173.726562 100.351562 174.015625 100.523438 174.296875 100.449219 C 177.914062 99.511719 181.648438 99.191406 185.351562 99.242188 C 194.570312 99.441406 203.722656 101.699219 212.15625 105.324219 C 213.816406 106.046875 215.421875 106.855469 216.914062 107.726562 C 216.914062 107.726562 221.296875 109.8125 221.296875 109.8125 C 221.351562 108.53125 221.574219 104.621094 221.589844 103.398438 C 221.695312 96.875 221.441406 89.820312 221.855469 83.183594 C 230.113281 84.949219 239.015625 83.671875 246.414062 79.578125 C 256.125 74.300781 259.898438 63.433594 259.308594 52.894531 Z M 259.308594 52.894531 " fill-opacity="1" fill-rule="nonzero"/></g></svg>