<svg xmlns="http://www.w3.org/2000/svg" xmlns:xlink="http://www.w3.org/1999/xlink" width="500" zoomAndPan="magnify" viewBox="0 0 375 374.999991" height="500" preserveAspectRatio="xMidYMid meet" version="1.0"><defs><g/><clipPath id="667ad72cc4"><path d="M 270 65.023438 L 312 65.023438 L 312 230.023438 L 270 230.023438 Z M 270 65.023438 " clip-rule="nonzero"/></clipPath><clipPath id="ee9ecb88a8"><path d="M 68.09375 65.773438 L 100.34375 65.773438 L 100.34375 221 L 68.09375 221 Z M 68.09375 65.773438 " clip-rule="nonzero"/></clipPath><clipPath id="c560075c5a"><path d="M 110 13 L 259 13 L 259 118.742188 L 110 118.742188 Z M 110 13 " clip-rule="nonzero"/></clipPath></defs><g fill="#ffffff" fill-opacity="1"><g transform="translate(54.035576, 271.846825)"><g><path d="M 79.328125 -77.203125 L 141.609375 0 L 116.03125 0 L 67.25 -60.390625 L 20.125 3.78125 L 20.125 -154.171875 L 40.265625 -154.171875 L 40.265625 -56.828125 L 111.296875 -154.171875 L 135.6875 -154.171875 Z M 79.328125 -77.203125 "/></g></g></g><g fill="#ffffff" fill-opacity="1"><g transform="translate(160.59941, 271.846825)"><g><path d="M 40.265625 0 L 20.359375 0 L 20.359375 -156.53125 L 120.53125 -48.3125 L 120.53125 -154.171875 L 140.1875 -154.171875 L 140.1875 3.78125 L 40.265625 -104.90625 Z M 40.265625 0 "/></g></g></g><g clip-path="url(#667ad72cc4)"><path fill="#ffffff" d="M 296.617188 124.410156 C 301.863281 121.183594 312.640625 116.886719 310.925781 98.070312 C 309.265625 79.914062 301.09375 65.632812 291.953125 65.050781 C 292.070312 65.046875 292.183594 65.035156 292.300781 65.039062 C 292.203125 65.039062 292.113281 65.035156 292.015625 65.035156 C 291.84375 65.027344 291.671875 65.035156 291.503906 65.039062 C 291.320312 65.035156 291.136719 65.027344 290.957031 65.035156 C 290.796875 65.027344 290.640625 65.035156 290.484375 65.039062 C 290.316406 65.035156 290.152344 65.027344 289.984375 65.035156 C 289.839844 65.027344 289.695312 65.039062 289.550781 65.039062 C 289.675781 65.039062 289.800781 65.050781 289.929688 65.058594 C 281.292969 65.726562 272.527344 79.972656 270.976562 98.070312 C 269.363281 116.886719 279.722656 120.851562 284.414062 124.410156 C 287.878906 127.042969 287.550781 132.566406 287.550781 132.566406 C 287.550781 132.566406 287.3125 137.117188 286.566406 146.816406 C 285.851562 156.105469 281.753906 204.707031 281.753906 213.527344 C 281.753906 221.816406 280.808594 229.539062 288.578125 230.121094 C 288.488281 230.128906 288.402344 230.144531 288.3125 230.144531 L 288.15625 230.148438 C 288.457031 230.15625 288.765625 230.15625 289.089844 230.144531 C 289.4375 230.15625 289.796875 230.160156 290.175781 230.144531 L 290.214844 230.144531 C 290.410156 230.148438 290.605469 230.15625 290.8125 230.152344 C 290.664062 230.148438 290.523438 230.136719 290.378906 230.128906 C 299.640625 229.535156 297.792969 214.765625 297.792969 214.765625 C 297.792969 214.765625 294.800781 156.570312 294.089844 146.871094 C 293.320312 136.378906 293.226562 132.566406 293.226562 132.566406 C 293.226562 132.566406 292.835938 126.742188 296.617188 124.410156 " fill-opacity="1" fill-rule="nonzero"/></g><g clip-path="url(#ee9ecb88a8)"><path fill="#ffffff" d="M 89.792969 130.285156 C 89.792969 127.789062 90.402344 125.332031 91.546875 123.128906 L 96.933594 116.511719 C 99.277344 113.644531 100.484375 110.015625 100.355469 106.3125 L 96.910156 67.542969 C 96.875 66.558594 96.066406 65.773438 95.121094 65.773438 C 94.171875 65.773438 93.421875 66.558594 93.457031 67.542969 L 95.132812 101.992188 C 95.179688 103.351562 94.195312 104.464844 92.941406 104.464844 C 91.6875 104.464844 90.660156 103.351562 90.636719 101.992188 L 89.652344 67.542969 C 89.640625 66.558594 88.855469 65.773438 87.90625 65.773438 C 86.957031 65.773438 86.195312 66.558594 86.195312 67.542969 L 86.546875 101.992188 C 86.558594 103.351562 85.550781 104.464844 84.300781 104.464844 C 83.046875 104.464844 82.039062 103.351562 82.050781 101.992188 L 82.402344 67.542969 C 82.390625 66.558594 81.628906 65.773438 80.679688 65.773438 C 79.734375 65.773438 78.949219 66.558594 78.925781 67.542969 L 77.941406 101.992188 C 77.917969 103.351562 76.886719 104.464844 75.632812 104.464844 C 74.382812 104.464844 73.398438 103.351562 73.445312 101.992188 L 75.121094 67.542969 C 75.15625 66.558594 74.40625 65.773438 73.457031 65.773438 C 72.507812 65.773438 71.699219 66.558594 71.664062 67.542969 L 68.222656 106.3125 C 68.09375 110.015625 69.3125 113.632812 71.640625 116.511719 L 77.027344 123.128906 C 78.1875 125.34375 78.785156 127.789062 78.785156 130.285156 C 78.785156 130.285156 81.289062 167.300781 76.546875 203.027344 C 76.546875 203.027344 72.882812 220.964844 84.277344 220.964844 C 95.671875 220.964844 92.003906 203.027344 92.003906 203.027344 C 87.285156 167.300781 89.792969 130.285156 89.792969 130.285156 Z M 89.792969 130.285156 " fill-opacity="1" fill-rule="nonzero"/></g><g clip-path="url(#c560075c5a)"><path fill="#ffffff" d="M 258.894531 52.894531 C 258.316406 43.621094 251.253906 35.273438 242.335938 32.902344 C 236.609375 31.367188 230.078125 32.015625 224.847656 34.875 C 224.625 34.054688 224.355469 33.242188 224.050781 32.449219 C 220.4375 22.867188 210.992188 16.410156 201.160156 14.445312 C 199.226562 14.046875 197.269531 13.792969 195.304688 13.664062 C 189.652344 13.003906 184.53125 15.078125 179.820312 17.824219 C 167.546875 24.953125 157.453125 37.101562 142.691406 38.621094 C 142.4375 38.636719 142.222656 38.832031 142.191406 39.097656 C 142.160156 39.386719 142.371094 39.648438 142.664062 39.675781 C 145.15625 39.992188 147.6875 39.902344 150.167969 39.488281 C 157.566406 38.222656 164.332031 34.273438 170.515625 30.375 C 177.722656 26.078125 186.273438 18.796875 194.609375 19.65625 C 204.941406 20.15625 215.523438 24.738281 220.898438 33.964844 C 221.398438 34.800781 221.851562 35.671875 222.253906 36.566406 C 220.882812 37.621094 219.65625 38.863281 218.621094 40.289062 C 217.375 42.085938 216.578125 44.265625 216.628906 46.417969 C 216.636719 46.644531 216.789062 46.855469 217.027344 46.917969 C 217.3125 46.996094 217.605469 46.820312 217.679688 46.535156 C 218.175781 44.691406 219.207031 43.125 220.515625 41.855469 C 221.40625 41.035156 222.378906 40.316406 223.417969 39.691406 C 224.101562 39.28125 224.8125 38.914062 225.546875 38.589844 C 231.929688 35.757812 239.9375 36.199219 245.65625 39.96875 C 249.628906 42.617188 252.539062 46.898438 253.300781 51.617188 C 253.625 53.851562 253.472656 56.117188 253.246094 58.339844 C 252.523438 65.003906 249.195312 71.347656 243.199219 74.453125 C 239.589844 76.367188 235.574219 77.527344 231.496094 77.855469 C 223.808594 78.648438 217.78125 75.730469 211.257812 73.113281 C 216.152344 71.222656 220.902344 67.378906 221.027344 61.859375 C 221.035156 61.277344 220.207031 61.117188 219.992188 61.65625 C 218.582031 64.9375 215.953125 67.042969 212.859375 68.597656 C 210.746094 69.675781 208.488281 70.363281 206.300781 71.292969 C 206.300781 71.289062 206.300781 71.289062 206.300781 71.289062 C 205.453125 71.015625 204.585938 70.761719 203.703125 70.535156 C 201.582031 70 199.445312 69.628906 197.304688 69.402344 C 197.304688 69.402344 197.300781 69.402344 197.300781 69.402344 C 201.800781 66.148438 205.257812 61.046875 206.320312 55.972656 C 206.917969 53.335938 207.054688 50.414062 205.921875 47.898438 C 205.667969 47.332031 204.796875 47.613281 204.910156 48.210938 C 205.277344 50.609375 204.710938 53.019531 203.84375 55.25 C 201.585938 61.355469 196.625 66.117188 190.796875 68.828125 C 190.625 68.921875 190.445312 69.003906 190.265625 69.09375 C 187.84375 69.132812 185.417969 69.308594 183 69.578125 C 183.152344 69.40625 183.304688 69.238281 183.457031 69.058594 C 186.128906 65.949219 187.882812 61.789062 187.675781 57.695312 C 187.664062 57.464844 187.503906 57.257812 187.265625 57.203125 C 186.976562 57.132812 186.683594 57.320312 186.621094 57.613281 C 186.34375 58.785156 185.957031 59.902344 185.472656 60.964844 C 184.007812 64.074219 181.601562 66.695312 178.726562 68.535156 C 171.402344 73.28125 160.386719 72.347656 152.996094 68.25 C 149 65.871094 145.941406 62.011719 142.597656 58.632812 C 142.183594 58.222656 141.515625 58.675781 141.714844 59.210938 C 142.628906 61.5625 143.734375 63.832031 145.136719 66.011719 C 148.007812 70.609375 151.914062 73.449219 156.671875 75.003906 C 154.976562 75.554688 153.316406 76.199219 151.710938 76.96875 C 147.453125 78.945312 143.28125 81.828125 138.613281 81.960938 C 128.359375 83.402344 118.449219 68.699219 116.316406 59.878906 C 114.40625 52.371094 117.75 43.882812 124.4375 39.839844 C 132.890625 34.640625 143.507812 34.824219 152.75 31.027344 C 157.03125 29.402344 160.6875 26.480469 164.460938 24.03125 C 165.003906 23.679688 164.5625 22.84375 163.957031 23.109375 C 159.921875 25.011719 156.195312 27.460938 151.917969 28.671875 C 145.59375 30.566406 138.726562 30.914062 132.175781 32.367188 C 127.558594 33.355469 122.816406 35.070312 119.078125 38.117188 C 112.640625 43.210938 109.492188 51.949219 111.03125 60.035156 C 112.507812 68.199219 118.445312 77.578125 124.851562 82.832031 C 128.738281 86.054688 133.945312 88.328125 139.191406 87.65625 C 140.589844 87.617188 141.941406 87.394531 143.230469 87.0625 C 144.121094 93.4375 144.875 99.839844 145.359375 106.246094 C 145.667969 110.078125 145.773438 114.675781 145.707031 118.53125 C 145.707031 118.53125 150.421875 116.328125 150.421875 116.328125 C 154.988281 114.230469 160.183594 112.917969 165.1875 111.878906 C 178.929688 109.207031 199.292969 107.296875 212.46875 112.3125 C 212.722656 112.417969 213.015625 112.316406 213.144531 112.070312 C 213.277344 111.808594 213.175781 111.492188 212.917969 111.355469 C 199.796875 104.96875 178.773438 105.066406 164.351562 106.550781 C 160.207031 107.039062 156.148438 107.644531 152.117188 108.699219 C 151.25 100.792969 149.824219 93 148.285156 85.207031 C 148.285156 85.207031 148.285156 85.207031 148.289062 85.207031 C 151.171875 83.886719 153.789062 82.367188 156.777344 81.253906 C 160.355469 79.917969 164.144531 79.128906 167.941406 78.320312 C 173.683594 77.113281 179.542969 75.964844 185.332031 75.472656 C 191.96875 74.910156 198.574219 75.195312 204.882812 77.257812 C 208.566406 78.476562 212.054688 80.144531 215.726562 81.488281 C 215.726562 81.488281 215.726562 81.488281 215.730469 81.488281 C 215.109375 87.722656 215.125 94.125 214.953125 100.386719 C 208.972656 98.382812 202.730469 97.292969 196.460938 96.769531 C 188.769531 96.214844 180.808594 96.667969 173.5625 99.445312 C 173.316406 99.539062 173.171875 99.808594 173.242188 100.070312 C 173.316406 100.351562 173.601562 100.523438 173.886719 100.449219 C 177.503906 99.511719 181.234375 99.191406 184.941406 99.242188 C 194.15625 99.441406 203.308594 101.699219 211.746094 105.324219 C 213.402344 106.046875 215.011719 106.855469 216.5 107.726562 C 216.5 107.726562 220.886719 109.8125 220.886719 109.8125 C 220.9375 108.53125 221.160156 104.621094 221.175781 103.398438 C 221.285156 96.875 221.027344 89.820312 221.441406 83.183594 C 229.699219 84.949219 238.601562 83.671875 246.003906 79.578125 C 255.710938 74.300781 259.488281 63.433594 258.894531 52.894531 Z M 258.894531 52.894531 " fill-opacity="1" fill-rule="nonzero"/></g></svg>